<svg width="30" height="27" viewBox="0 0 30 27" fill="none" xmlns="http://www.w3.org/2000/svg">
<path d="M28.5566 9.26734L28.5561 9.26766L24.1575 12.4293L23.8839 12.626L23.7851 12.9482C21.121 21.6377 13.0198 26.8542 5.32436 25.1256C3.72422 24.7662 2.56392 24.2043 1.79912 23.516C1.2017 22.9769 1.04984 22.5396 1.03838 22.505C1.03369 22.4902 1.03002 22.4671 1.03287 22.4382C1.03576 22.4088 1.0447 22.3809 1.05717 22.3581C1.06812 22.3381 1.07913 22.3267 1.08523 22.3215C1.24088 22.2919 4.48566 21.6595 6.96366 19.6049L7.66791 19.0209L7.1488 18.2676C6.41981 17.2097 5.83822 16.0256 5.4254 14.7522L5.42541 14.7522L5.42385 14.7474C4.57583 12.1754 3.90637 7.80628 5.75148 1.83077C5.97341 2.21289 6.68734 3.39577 7.79572 4.79422C9.1119 6.45485 11.0346 8.48408 13.4042 9.80784L14.574 10.4613L14.8676 9.154L15.0484 8.34938L15.0488 8.3473C15.211 7.61817 15.5008 6.92745 15.8988 6.31623C16.2968 5.70505 16.7926 5.18913 17.3526 4.79501L17.3526 4.79505L17.3601 4.78967C17.9037 4.39946 18.4986 4.1363 19.1075 4.00828C19.7159 3.88038 20.3297 3.88906 20.9149 4.03017L20.9193 4.03121C21.7117 4.21845 22.4445 4.63469 23.045 5.25071C23.6466 5.86775 24.0974 6.66751 24.3408 7.58041L24.4968 8.16578L25.0879 8.29855L28.6085 9.0894C28.6096 9.09374 28.6106 9.09879 28.6113 9.1046C28.6155 9.13617 28.6112 9.17459 28.5963 9.21024C28.5814 9.24584 28.5628 9.26287 28.5566 9.26734ZM14.3796 8.06182C14.2939 8.01392 14.2087 7.96486 14.1241 7.91469L13.8919 8.93483L14.3115 8.18386L14.3117 8.18338L14.3796 8.06182Z" stroke="white" stroke-width="2"/>
</svg>
